<svg xmlns="http://www.w3.org/2000/svg" viewBox="0 0 91.06 95.01"><defs><style>.cls-1{fill:#42210b;}.cls-2{fill:#fff;}</style></defs><g id="Calque_2" data-name="Calque 2"><g id="layer_1" data-name="layer 1"><path class="cls-1" d="M22.92,38.74l-.18.48H68.32c0-.16-.12-.32-.18-.48Z"/><path class="cls-1" d="M22.58,39.69c-.06.16-.11.32-.16.47H68.65c-.06-.15-.11-.31-.17-.47Z"/><path class="cls-1" d="M23.31,37.8c-.07.15-.14.31-.2.47H68c-.06-.16-.13-.32-.2-.47Z"/><path class="cls-1" d="M24.24,35.9c-.09.16-.17.32-.25.48H67.07l-.24-.48Z"/><path class="cls-1" d="M23.75,36.85l-.23.47h44l-.23-.47Z"/><path class="cls-1" d="M21.62,43.48c0,.16-.05.31-.08.47h48c0-.16,0-.31-.08-.47Z"/><path class="cls-1" d="M21.48,44.43l-.06.47H69.64l-.06-.47Z"/><path class="cls-1" d="M21.38,45.37l0,.48H69.72c0-.16,0-.32,0-.48Z"/><path class="cls-1" d="M22,41.58c0,.16-.07.32-.11.48H69.16c0-.16-.07-.32-.11-.48Z"/><path class="cls-1" d="M21.31,46.32c0,.16,0,.32,0,.47H69.76c0-.15,0-.31,0-.47Z"/><path class="cls-1" d="M24.78,35l-.27.48H66.56c-.1-.16-.18-.32-.28-.48Z"/><path class="cls-1" d="M21.8,42.53c0,.16-.06.32-.09.48H69.36l-.09-.48Z"/><path class="cls-1" d="M22.28,40.64c-.05.15-.1.31-.14.47H68.92c0-.16-.09-.32-.13-.47Z"/><path class="cls-1" d="M25.39,34c-.11.15-.21.31-.31.47H66l-.3-.47Z"/><path class="cls-1" d="M32,27.38l-.67.47h28.4c-.22-.16-.44-.32-.67-.47Z"/><path class="cls-1" d="M37.76,24.54c-.44.14-.86.3-1.29.47H54.59c-.42-.17-.85-.33-1.29-.47Z"/><path class="cls-1" d="M33.54,26.43c-.27.15-.54.31-.8.48H58.32c-.26-.17-.53-.33-.8-.48Z"/><path class="cls-1" d="M21.3,48.21c0,.16,0,.32,0,.48H69.75c0-.16,0-.32,0-.48Z"/><path class="cls-1" d="M41.54,23.59c-.76.12-1.5.28-2.23.47H51.75c-.73-.19-1.47-.35-2.22-.47Z"/><path class="cls-1" d="M35.38,25.48c-.33.15-.65.31-1,.48H56.65c-.32-.17-.64-.33-1-.48Z"/><path class="cls-1" d="M30.7,28.33l-.6.47H61c-.19-.16-.4-.32-.6-.47Z"/><path class="cls-1" d="M26.05,33.06l-.33.48H65.35L65,33.06Z"/><path class="cls-1" d="M26.79,32.11l-.37.48H64.64l-.37-.48Z"/><path class="cls-1" d="M27.61,31.17c-.14.15-.27.31-.41.47H63.86c-.14-.16-.27-.32-.41-.47Z"/><path class="cls-1" d="M29.55,29.27l-.52.48H62l-.53-.48Z"/><path class="cls-1" d="M32.74,68.1c.26.17.53.32.8.48h24c.27-.16.54-.31.8-.48Z"/><path class="cls-1" d="M30.1,66.21l.6.47H60.36c.2-.15.41-.31.6-.47Z"/><path class="cls-1" d="M29,65.26l.52.48h32l.53-.48Z"/><path class="cls-1" d="M31.33,67.16l.67.47H59.06c.23-.15.45-.31.67-.47Z"/><path class="cls-1" d="M25.72,61.47l.33.48H65l.34-.48Z"/><path class="cls-1" d="M26.42,62.42l.37.48H64.27l.37-.48Z"/><path class="cls-1" d="M21.35,49.16l0,.48h48.3c0-.16,0-.32,0-.48Z"/><path class="cls-1" d="M34.41,69.05c.32.17.64.32,1,.47h20.3c.33-.15.65-.3,1-.47Z"/><path class="cls-1" d="M28.07,30.69H63l-.47-.47h-34C28.37,30.37,28.22,30.53,28.07,30.69Z"/><path class="cls-1" d="M21.28,47.5c0,.08,0,.16,0,.24H69.77c0-.08,0-.16,0-.24s0-.15,0-.23H21.29C21.29,47.35,21.28,47.42,21.28,47.5Z"/><path class="cls-1" d="M39.31,70.94c.73.2,1.47.35,2.23.48h8c.75-.13,1.49-.28,2.22-.48Z"/><path class="cls-1" d="M36.47,70c.43.17.85.33,1.29.47H53.3c.44-.14.87-.3,1.29-.47Z"/><path class="cls-1" d="M28.07,64.31l.46.48h34l.47-.48Z"/><path class="cls-1" d="M27.2,63.37c.14.16.27.32.41.47H63.45c.14-.15.27-.31.41-.47Z"/><path class="cls-1" d="M21.71,52c0,.16.05.32.09.48H69.27l.09-.48Z"/><path class="cls-1" d="M21.9,53c0,.16.07.32.11.47h47c0-.15.07-.31.11-.47Z"/><path class="cls-1" d="M25.08,60.53c.1.15.2.32.31.47H65.68l.3-.47Z"/><path class="cls-1" d="M21.54,51.06c0,.15.06.31.08.47H69.44c0-.16,0-.32.08-.47Z"/><path class="cls-1" d="M21.42,50.11l.06.47h48.1l.06-.47Z"/><path class="cls-1" d="M22.42,54.84c0,.16.1.32.16.48h45.9l.17-.48Z"/><path class="cls-1" d="M22.14,53.9c0,.16.09.31.14.47H68.79c0-.16.09-.31.13-.47Z"/><path class="cls-1" d="M24,58.63c.08.16.16.32.25.48H66.83l.24-.48Z"/><path class="cls-1" d="M24.51,59.58l.27.47h41.5c.1-.15.18-.31.28-.47Z"/><path class="cls-1" d="M22.74,55.79l.18.48H68.14c.06-.16.13-.32.18-.48Z"/><path class="cls-1" d="M23.52,57.68l.23.48H67.31l.23-.48Z"/><path class="cls-1" d="M23.11,56.74c.06.16.13.31.2.47H67.75c.07-.16.14-.31.2-.47Z"/><path class="cls-1" d="M20.78,34l.4-.87-3.24-2-.5.82-.55-.34.77-2,4.11,2.54.6-.75.58.35-1.59,2.58Z"/><path class="cls-1" d="M24.19,26.82a2.46,2.46,0,0,1,1,1.49,2,2,0,0,1-1.8,2.11,2.44,2.44,0,0,1-1.63-.7l-.94-.81a2.52,2.52,0,0,1-1-1.49A1.75,1.75,0,0,1,20.28,26a1.78,1.78,0,0,1,1.34-.68,2.46,2.46,0,0,1,1.63.71Zm-1.76,0a2,2,0,0,0-.87-.49.67.67,0,0,0-.62.24.66.66,0,0,0-.14.64,1.84,1.84,0,0,0,.62.79l1.12.95a1.88,1.88,0,0,0,.88.49.66.66,0,0,0,.61-.24.64.64,0,0,0,.14-.64,1.84,1.84,0,0,0-.62-.79Z"/><path class="cls-1" d="M28,23.5a2.43,2.43,0,0,1,.69,1.63A1.74,1.74,0,0,1,28,26.46a1.81,1.81,0,0,1-1.44.45,2.5,2.5,0,0,1-1.48-1l-.79-1a2.49,2.49,0,0,1-.7-1.62,2,2,0,0,1,2.14-1.79,2.55,2.55,0,0,1,1.48,1Zm-1.73-.32a1.93,1.93,0,0,0-.78-.63.65.65,0,0,0-.65.14.64.64,0,0,0-.24.6,1.86,1.86,0,0,0,.47.88L26,25.3a1.86,1.86,0,0,0,.79.63.66.66,0,0,0,.65-.14.64.64,0,0,0,.24-.6,1.87,1.87,0,0,0-.48-.89Z"/><path class="cls-1" d="M27.74,20.77a1.15,1.15,0,0,1-.12-.88A1.38,1.38,0,0,1,29.19,19a1.15,1.15,0,0,1,.68.57l.15.26a1.14,1.14,0,0,1,.12.88,1.22,1.22,0,0,1-.62.72,1.19,1.19,0,0,1-.95.15,1.09,1.09,0,0,1-.69-.56Zm.8-.11a.58.58,0,0,0,.29.27.4.4,0,0,0,.38,0,.41.41,0,0,0,.23-.3.55.55,0,0,0-.07-.39l-.15-.26a.58.58,0,0,0-.29-.27.42.42,0,0,0-.39,0,.41.41,0,0,0-.23.3.62.62,0,0,0,.08.39Zm2.56,3h-.62l.26-5.18h.62Zm.53-1.39a1.15,1.15,0,0,1-.12-.88,1.38,1.38,0,0,1,1.57-.88,1.15,1.15,0,0,1,.69.56l.14.26a1.17,1.17,0,0,1,.12.89,1.39,1.39,0,0,1-1.57.87,1.13,1.13,0,0,1-.69-.56Zm.8-.11a.56.56,0,0,0,.3.27.47.47,0,0,0,.38,0,.43.43,0,0,0,.24-.3.65.65,0,0,0-.09-.39l-.15-.26a.58.58,0,0,0-.29-.27.48.48,0,0,0-.62.34.62.62,0,0,0,.08.39Z"/><path class="cls-1" d="M41.47,14.53l.15.67-.57.24,1,4.72-1.1.23-3-3.23h0l.62,2.92h.62l.14.66L37,21.23l-.14-.66.56-.24-.84-3.95H36l-.14-.66.59-.13,1.1-.23,3,3.23h0L40,15.67h-.61L39.2,15l1.68-.36Z"/><path class="cls-1" d="M42.6,19.41l.41-.07,1.63-4.92h1.15l1.78,4.86.4.05V20l-1.91,0v-.68l.39-.07-.26-.77-1.83,0-.23.77.39.07v.67l-1.91,0Zm2-1.71,1.29,0-.67-2h0Z"/><path class="cls-1" d="M53.79,15.36l-.26,1.47-.85-.15.06-.63-1-.18L51,19.78l.57.22-.11.66-2.3-.41.12-.66h.61l.69-3.9-1-.18-.15.61L48.59,16l.26-1.48Z"/><path class="cls-1" d="M57.51,16.65l-.25.63-.61-.12-1.1,2.72a1.09,1.09,0,0,0,0,.88,1.22,1.22,0,0,0,.66.57,1.16,1.16,0,0,0,.87.05,1,1,0,0,0,.59-.66L58.74,18l-.51-.33.26-.63,2.15.88-.25.63-.6-.12-1.11,2.72a1.79,1.79,0,0,1-1.13,1.12,2.52,2.52,0,0,1-1.71-.14A2.5,2.5,0,0,1,54.53,21a1.8,1.8,0,0,1,0-1.59l1.11-2.72-.51-.33.25-.63.56.22,1,.43Z"/><path class="cls-1" d="M64.18,20.16a2.31,2.31,0,0,1,1,1.21,1.46,1.46,0,0,1-.23,1.31,1.16,1.16,0,0,1-.6.48,1.57,1.57,0,0,1-.84,0,1.27,1.27,0,0,1,.32.81,1.59,1.59,0,0,1-.3.83l-.16.23a.44.44,0,0,0-.1.28.32.32,0,0,0,.13.24l.1.09-.38.56-.48-.32a.91.91,0,0,1-.48-.69,1.23,1.23,0,0,1,.25-.76l.18-.26a.86.86,0,0,0,.18-.66.82.82,0,0,0-.37-.55l-.76-.52-.84,1.23.44.43-.38.56-1.93-1.31.38-.56.56.24,2.28-3.33-.43-.44.38-.56.5.34Zm-2.06,1.6.65.44a1.07,1.07,0,0,0,.69.24.73.73,0,0,0,.52-.35.75.75,0,0,0,.15-.63,1,1,0,0,0-.44-.58L63,20.43Z"/><path class="cls-1" d="M64,26.06l.32.25L69,24.15l.8.83L67.43,29.6l.24.32-.49.47L65.85,29l.49-.47.32.24.39-.72-1.27-1.31-.73.36.23.33-.49.47-1.33-1.39Zm2.62.31.89.93,1-1.84h0Z"/><path class="cls-1" d="M67.47,30.84l.56-.37.43.44,3.39-2.19-.23-.57.57-.37.32.51.62.94.32.51-.57.37-.42-.44-3.33,2.15L70,33.15l.63-.34.46.73-1.32.85Z"/><path class="cls-1" d="M19.56,56.27a2.33,2.33,0,0,1-.08,1.82,2.3,2.3,0,0,1-1.39,1.17l-.88.3a2.29,2.29,0,0,1-1.82-.09,2.39,2.39,0,0,1-1.16-1.41l-.81-2.4.64-.21.3.53,3.83-1.29-.08-.6.64-.22.2.57Zm-1.08-.48L14.79,57l.24.7a1.16,1.16,0,0,0,.69.77,1.63,1.63,0,0,0,1.13,0l.89-.3a1.56,1.56,0,0,0,.89-.67,1.15,1.15,0,0,0,.09-1Z"/><path class="cls-1" d="M16.09,61.2l.25.32,5.1-.94.57,1-3.4,3.9.14.37-.58.34-1-1.66.58-.34.26.31.55-.6-.91-1.59-.79.17.13.38-.59.33-.95-1.66Zm2.47.94.64,1.12,1.4-1.53v0Z"/><path class="cls-1" d="M22.85,64.11l.53-.42,1.46,1.82-.53.42-.47-.39-3.15,2.52.28.54-.53.42L19,67.2l.53-.42.46.4,3.16-2.52Z"/><path class="cls-1" d="M21.27,70l.47-.49.51.32L25,66.93l-.35-.5.46-.49.44.41.82.78.43.41-.46.5-.52-.34-2.73,2.88,1.15,1.09.53-.47.62.59-1.08,1.14Z"/><path class="cls-1" d="M29,70.23,28.61,70l-.35,2h0l1.77-1-.33-.31.39-.56,1.74,1.23-.39.55L31,71.74l-2.91,1.48-.69,1,.43.44-.39.55-1.91-1.34.39-.55.56.25.72-1,.41-3.18L27.28,69l.39-.56,1.74,1.23Z"/><path class="cls-1" d="M32.41,77.18l.6.09,1.38-3.79-.52-.31.23-.64,4.21,1.53-.53,1.44L37,75.21l.18-.65-1.72-.63-.53,1.46,1.85.67-.3.82-1.85-.67-.53,1.45.53.31-.23.64-2.19-.8Z"/><path class="cls-1" d="M41.18,74.58a2.29,2.29,0,0,1,1.41.67,1.45,1.45,0,0,1,.35,1.28,1.32,1.32,0,0,1-.34.7,1.64,1.64,0,0,1-.74.39,1.23,1.23,0,0,1,.63.6,1.63,1.63,0,0,1,.08.87l0,.28a.48.48,0,0,0,0,.3.34.34,0,0,0,.22.15l.13.05-.1.67-.58-.1A.9.9,0,0,1,41.5,80a1.23,1.23,0,0,1-.1-.8l.05-.31a.87.87,0,0,0-.11-.67.83.83,0,0,0-.57-.34l-.91-.15-.24,1.46.58.21-.11.67-2.3-.37.11-.67.61,0,.64-4-.57-.21.11-.67.59.09ZM40,76.9l.77.12a1.06,1.06,0,0,0,.73-.08.75.75,0,0,0,.32-.54.79.79,0,0,0-.13-.63,1,1,0,0,0-.65-.33l-.79-.13Z"/><path class="cls-1" d="M47.76,78l-1.91,0,0,1.61,1.81,0,0-.68.86,0,0,1.54-4.44.12,0-.67.59-.14-.11-4-.6-.1L44,75l.6,0,3.84-.11,0,1.54-.86,0-.07-.67-1.8,0,0,1.41,1.9,0Z"/><path class="cls-1" d="M53.64,75.67l-.83.17-.3-.73a1.63,1.63,0,0,0-.45-.07,3.05,3.05,0,0,0-.6.06,1.09,1.09,0,0,0-.66.34.6.6,0,0,0-.15.54.57.57,0,0,0,.36.41,3.54,3.54,0,0,0,1,.19A3.56,3.56,0,0,1,53.5,77a1.48,1.48,0,0,1,.38,2.23,2.46,2.46,0,0,1-1.39.71,3,3,0,0,1-1.23,0,2.38,2.38,0,0,1-1-.39L50,78.4l.86-.17.28.75a1.35,1.35,0,0,0,.5.13,2.09,2.09,0,0,0,.65,0,1.24,1.24,0,0,0,.66-.33.63.63,0,0,0,.13-.55.69.69,0,0,0-.33-.46,2.42,2.42,0,0,0-.87-.2,4.53,4.53,0,0,1-1.62-.36,1.32,1.32,0,0,1-.73-1A1.33,1.33,0,0,1,49.89,75a2.39,2.39,0,0,1,1.33-.74,3.27,3.27,0,0,1,1.2-.05,2.91,2.91,0,0,1,1,.33Z"/><path class="cls-1" d="M54,74.46l-.27-.63,2.14-.92.27.63-.5.34.64,1.49,2.11-.91L57.77,73l-.6.13-.27-.62.56-.24,1-.44.55-.24.27.62-.5.35,1.59,3.7.6-.13.27.62-2.14.92L58.87,77l.5-.34-.61-1.42-2.11.91.62,1.42.59-.13.27.62L56,79l-.26-.62.5-.35-1.6-3.7Z"/><path class="cls-1" d="M66.22,67.77l0,0,1.65,4.11-.57.5L63.4,70.31h0l1.72,1.77.59.66.53-.31.45.5-1.74,1.55-.45-.5.37-.49-2.69-3-.52.32-.46-.51.45-.4,1.1-1,3.83,2.14,0,0L64.9,67l1.55-1.39.46.51-.38.49,2.69,3,.53-.32.45.51-1.74,1.55L68,70.84l.37-.48-.59-.66Z"/><path class="cls-1" d="M67.1,65.58l-.54-.41L68,63.32l.54.42-.27.54,3.19,2.47.46-.4.54.41L71,68.6l-.53-.41.27-.55-3.19-2.47Z"/><path class="cls-1" d="M73.21,65.72l-.59-.33.2-.58-3.51-2-.39.47-.59-.34.29-.52.56-1,.3-.52.59.33-.2.58,3.44,2,.79-1.37-.58-.4.42-.75,1.37.78Z"/><path class="cls-1" d="M75.31,60.53l.09-.6-3.82-1.32-.31.53-.64-.22.75-2.18L72,57l-.07.57,1.42.49.16-.46L72.39,56l-.15.29-.64-.22.73-2.1.64.22-.1.61,1.29,1.91L76.77,56l.27-.5.64.22L77,57.83l-.64-.22.07-.34-1.89.49-.21.59,1.47.51.3-.5.64.22L76,60.75Z"/><path class="cls-1" d="M44.55,67.42c-2.41,0-6.89-.44-7.17-2.11a10.82,10.82,0,0,1-5-9.16c0-3.48,1.17-6.89,2.2-9.9a23.3,23.3,0,0,0,1.68-6.89,4.73,4.73,0,0,0-2.72-4.54,3.2,3.2,0,0,1-1.39-1.26,1.3,1.3,0,0,1,.18-1.24c1-1.62,5.2-3.45,11.89-3.62h.51a23.11,23.11,0,0,1,9.11,1.92,1.32,1.32,0,0,1,.67.74,1.22,1.22,0,0,1-.06.92,15.75,15.75,0,0,0-.71,1.66,9.59,9.59,0,0,1,4.71-1.64h.32a6,6,0,0,1,5.49,3.16c.89,1.84.62,4.28-.75,6.69a26.68,26.68,0,0,1-1.75,2.63A24.23,24.23,0,0,0,60,47.54a16,16,0,0,0-1.66,5.64v.1a4.34,4.34,0,0,1-.4,1.57,2,2,0,0,1-1.23,1v.31a10.68,10.68,0,0,1-4.95,9.14C51.46,67,47,67.42,44.55,67.42Zm9.91-21.17c.31.92.66,1.93,1,3a16.5,16.5,0,0,1,2.19-3.78,24.82,24.82,0,0,0,1.46-2.26,12.16,12.16,0,0,0,1.81-5.1c0-.43,0-1.85-1.37-2.15a2.53,2.53,0,0,0-.56-.06,3.91,3.91,0,0,0-2.27.81,6,6,0,0,0-1.85,2.73,8.54,8.54,0,0,0-.65,4.44V44a2.15,2.15,0,0,1-.05,1.41C54.26,45.66,54.35,46,54.46,46.25Z"/><path class="cls-2" d="M63.93,35.61a5.7,5.7,0,0,0-5.43-2.93A9.86,9.86,0,0,0,53,35a17.09,17.09,0,0,1,1.1-2.86.76.76,0,0,0,0-.61A.9.9,0,0,0,53.7,31a22.82,22.82,0,0,0-9.44-1.86c-7,.17-10.75,2.15-11.57,3.44a.86.86,0,0,0-.14.86,3,3,0,0,0,1.23,1.09,5.09,5.09,0,0,1,2.91,4.87c0,2.06-.83,4.46-1.7,7-1,3-2.19,6.37-2.19,9.78a10.38,10.38,0,0,0,5,8.93v.07c0,1.17,3.44,1.88,6.78,1.88s6.78-.71,6.78-1.88c0,0,0-.06,0-.08a10.37,10.37,0,0,0,4.94-8.92c0-.23,0-.46,0-.69h.1a1.45,1.45,0,0,0,1.19-.8,4,4,0,0,0,.36-1.43v-.1a16.19,16.19,0,0,1,1.7-5.79,25.43,25.43,0,0,1,1.86-2.82,28.46,28.46,0,0,0,1.73-2.59C64.5,39.64,64.76,37.34,63.93,35.61ZM53.83,44l0-.09a8.89,8.89,0,0,1,.67-4.65,6.31,6.31,0,0,1,2-2.91,4,4,0,0,1,3.16-.82,2.34,2.34,0,0,1,1.68,2.54,12.51,12.51,0,0,1-1.86,5.28A24.39,24.39,0,0,1,58,45.69a12.21,12.21,0,0,0-2.49,5c-.41-1.51-.91-3-1.38-4.35l-.36-1A1.58,1.58,0,0,0,53.83,44Z"/><path class="cls-1" d="M51.78,41.53c0-.25-.21-.48-.56-.69,0-.17,0-.88,0-1.72s.15-1.76.09-1.77A4.81,4.81,0,0,0,51,39.11a6.43,6.43,0,0,0,.12,1.7c-1.2-.64-4-1-6.63-1a25,25,0,0,0-5.09.47,3.83,3.83,0,0,0,.05-.75,1.87,1.87,0,0,0-.24-1,5.1,5.1,0,0,0,0,1c0,.31,0,.59,0,.77a4.84,4.84,0,0,0-1.63.63c0-.23.06-.49.08-.77a4.23,4.23,0,0,0-.22-1.82c-.06,0,.06.82,0,1.81,0,.36,0,.69-.08,1a.57.57,0,0,0-.17.38.5.5,0,0,0,.08.26c0,.12,0,.18,0,.19s0,0,.06-.1c.69.88,4,1.35,7.1,1.35C48.05,43.23,51.78,42.64,51.78,41.53Zm-14.23,0v0l0-.06c.24-.66,3-1.35,7-1.35,4.12,0,7,.76,7,1.44S48.65,43,44.53,43,37.55,42.22,37.55,41.53ZM33,33h0Zm31,2.58a5.7,5.7,0,0,0-5.43-2.93A9.86,9.86,0,0,0,53,35a17.09,17.09,0,0,1,1.1-2.86.76.76,0,0,0,0-.61A.9.9,0,0,0,53.7,31a22.82,22.82,0,0,0-9.44-1.86c-7,.17-10.75,2.15-11.57,3.44a.86.86,0,0,0-.14.86,3,3,0,0,0,1.23,1.09,5.09,5.09,0,0,1,2.91,4.87c0,2.06-.83,4.46-1.7,7-1,3-2.19,6.37-2.19,9.78a10.38,10.38,0,0,0,5,8.93v.07c0,1.17,3.44,1.88,6.78,1.88s6.78-.71,6.78-1.88c0,0,0-.06,0-.08a10.37,10.37,0,0,0,4.94-8.92c0-.23,0-.46,0-.69h.1a1.45,1.45,0,0,0,1.19-.8,4,4,0,0,0,.36-1.43v-.1a16.19,16.19,0,0,1,1.7-5.79,25.43,25.43,0,0,1,1.86-2.82,28.46,28.46,0,0,0,1.73-2.59C64.5,39.64,64.76,37.34,63.93,35.61ZM51.12,64.89a.13.13,0,0,0-.07.15.43.43,0,0,1,0,.11c0,.78-2.62,1.62-6.52,1.62S38,65.93,38,65.15a.3.3,0,0,1,0-.1.15.15,0,0,0,0-.1.12.12,0,0,0-.06-.06,10.12,10.12,0,0,1-4.89-8.74c0-3.37,1.15-6.73,2.17-9.69a23.88,23.88,0,0,0,1.71-7.1,5.34,5.34,0,0,0-3-5.09,2.85,2.85,0,0,1-1.14-1,.71.71,0,0,1,.12-.63c.77-1.19,4.53-3.14,11.37-3.32a22.57,22.57,0,0,1,9.31,1.84.65.65,0,0,1,.34.37.51.51,0,0,1,0,.42,17.88,17.88,0,0,0-1.21,3.24h0a16.08,16.08,0,0,0-.55,4.14,23.88,23.88,0,0,0,1.71,7.1c1,3,2.17,6.32,2.17,9.69A10.12,10.12,0,0,1,51.12,64.89ZM53.83,44l0-.09a8.89,8.89,0,0,1,.67-4.65,6.31,6.31,0,0,1,2-2.91,4,4,0,0,1,3.16-.82,2.34,2.34,0,0,1,1.68,2.54,12.51,12.51,0,0,1-1.86,5.28A24.39,24.39,0,0,1,58,45.69a12.21,12.21,0,0,0-2.49,5c-.41-1.51-.91-3-1.38-4.35l-.36-1A1.58,1.58,0,0,0,53.83,44ZM63,41.81a28.05,28.05,0,0,1-1.72,2.57,25.06,25.06,0,0,0-1.88,2.85,16.63,16.63,0,0,0-1.73,5.88v.1a3.76,3.76,0,0,1-.32,1.34,1.16,1.16,0,0,1-1.09.66v-.1h0a1.22,1.22,0,0,0,.7-.43,1.79,1.79,0,0,0,.34-.71,3,3,0,0,0,.07-.37,1.65,1.65,0,0,0,0-.38,2.86,2.86,0,0,0-.09.35c0,.17-.1.34-.1.34a1.71,1.71,0,0,1-.36.66,1,1,0,0,1-.61.33h0c0-.05,0-.1,0-.15a.92.92,0,0,0,.33-.16s.14-.14.12-.16-.17.07-.17.07a.8.8,0,0,1-.3.06,21.1,21.1,0,0,0-.55-3.16c.13-2.18,1.35-3.91,2.53-5.59a25.46,25.46,0,0,0,1.51-2.31,12.85,12.85,0,0,0,1.88-5.4,2.57,2.57,0,0,0-1.88-2.8,4.25,4.25,0,0,0-3.37.87,6.58,6.58,0,0,0-2.06,3A9.08,9.08,0,0,0,53.56,44v.1a1.75,1.75,0,0,1,0,.9,18.81,18.81,0,0,1-1.23-5.63,15.62,15.62,0,0,1,.53-4,9.77,9.77,0,0,1,5.6-2.42,5.5,5.5,0,0,1,5.19,2.78C64.49,37.37,64.23,39.59,63,41.81Zm-9.93-8.89c.07,0-.38,1.35-.75,3s-.53,3-.6,3a10.7,10.7,0,0,1,.36-3.1A10.91,10.91,0,0,1,53.05,32.92Zm-1.61,3.75a5,5,0,0,1,.28-1.82,4.85,4.85,0,0,1,.7-1.7A11.53,11.53,0,0,1,52,34.92,10.41,10.41,0,0,1,51.44,36.67Zm-.25-1.86a2.81,2.81,0,0,1,.51-1.21,4.29,4.29,0,0,1-.26,1.28A4.17,4.17,0,0,1,51,36.12,3,3,0,0,1,51.19,34.81Zm-.15,0c-.07.28-.19.48-.26.46s-.06-.25,0-.52.19-.48.26-.46S51.11,34.5,51,34.77ZM36.89,37.23a6.7,6.7,0,0,0-1-1.65,7.78,7.78,0,0,0-.76-.76c-.26-.2-.5-.38-.71-.51-.43-.27-.72-.39-.7-.43a1.88,1.88,0,0,1,.78.27,5.14,5.14,0,0,1,.78.49,5.78,5.78,0,0,1,.81.77,6.29,6.29,0,0,1,.63.92,5.56,5.56,0,0,1,.36.84,1.77,1.77,0,0,1,.14.82A4.2,4.2,0,0,1,36.89,37.23Zm-.53-1.64c-.49-.65-1-1.06-1-1.12a2.46,2.46,0,0,1,1.18,1,2.41,2.41,0,0,1,.61,1.39C37.1,36.86,36.85,36.24,36.36,35.59Zm.47-.23c-.27-.42-.49-.77-.44-.82s.37.24.66.68.41.84.35.87S37.11,35.78,36.83,35.36Zm-1.49-2a12.19,12.19,0,0,1-1.34.11,2.27,2.27,0,0,1,1.33-.37,2.27,2.27,0,0,1,1.36.24A12.57,12.57,0,0,1,35.34,33.36Zm16.1.11c-.42.16-.93.33-1.5.5s-1.21.31-1.88.43-1.33.18-1.92.22-1.13.05-1.57,0a5.81,5.81,0,0,1-1.45-.14,12.43,12.43,0,0,1,1.45,0c.44,0,1,0,1.55-.09s1.23-.13,1.9-.25,1.29-.26,1.86-.4,1.08-.3,1.5-.44a10.67,10.67,0,0,1,1.37-.44A6,6,0,0,1,51.44,33.47Zm-11.34.92a4.08,4.08,0,0,1-1.61-.54,9.49,9.49,0,0,1,1.66.29,9.5,9.5,0,0,1,1.65.34A4.25,4.25,0,0,1,40.1,34.39ZM37.82,35A1.31,1.31,0,0,1,38,36c-.08,0-.18-.39-.4-.84s-.46-.79-.4-.84S37.58,34.5,37.82,35Zm.43-.12c.11.32.15.6.09.62s-.22-.21-.33-.53-.15-.6-.09-.62S38.13,34.56,38.25,34.88Zm7.3.18a6.55,6.55,0,0,1-.18,1.47A5.59,5.59,0,0,1,45.1,38a3.51,3.51,0,0,1,0-1.5A3.39,3.39,0,0,1,45.55,35.06Zm.77,0c.07,0-.07.43-.19.93s-.17.91-.24.91-.13-.44,0-1S46.26,35,46.32,35.06Zm.48.11c.07,0,.07.19,0,.36s-.17.31-.24.28-.06-.19,0-.36S46.74,35.14,46.8,35.17Zm-1.88.13c.07,0,0,.42-.11.89s-.22.86-.29.85a1.6,1.6,0,0,1,0-.91C44.68,35.65,44.86,35.28,44.92,35.3Zm-.79-.07c.07,0,.12.29.1.64s-.09.63-.16.63-.12-.29-.1-.64S44.06,35.23,44.13,35.23Zm-.77.31c0,.2,0,.35-.1.34s-.08-.15-.11-.31,0-.31,0-.34S43.33,35.34,43.36,35.54Zm-9.24-2.45-.51.09a1.55,1.55,0,0,1-.31,0l-.18,0A.24.24,0,0,1,33,33a.28.28,0,0,1,0-.22.77.77,0,0,1,.07-.16,1.33,1.33,0,0,1,.21-.26,3.39,3.39,0,0,1,.46-.39,6.3,6.3,0,0,1,.93-.57,9.21,9.21,0,0,1,1.62-.66,7.24,7.24,0,0,1,1.08-.27,3.58,3.58,0,0,1,.38-.06,1.89,1.89,0,0,1-.37.11c-.25.06-.6.16-1,.31a11.11,11.11,0,0,0-1.59.7,8.35,8.35,0,0,0-.9.57,3.16,3.16,0,0,0-.43.39,1.24,1.24,0,0,0-.18.22.53.53,0,0,0-.06.14l0,0a5.12,5.12,0,0,1,1.63-1.18,4.52,4.52,0,0,1,.42-.18,2.23,2.23,0,0,1,.44-.11,4.09,4.09,0,0,1-.43.2c-.21.1-.41.22-.41.22A5.19,5.19,0,0,0,33.34,33h.14l0,0a3.87,3.87,0,0,1,.91-.7l.23-.11c.12,0,.24-.09.25-.07a1.67,1.67,0,0,1-.22.15l-.22.15a4,4,0,0,0-.6.56l.09,0h0a2.07,2.07,0,0,1,.54-.39s.28-.11.29-.08-.06.06-.11.11l-.12.09a1.29,1.29,0,0,0-.21.19,4.37,4.37,0,0,1,1.17-.14,22,22,0,0,1,2.84.43c1,.2,2,.39,3.09.5a28.16,28.16,0,0,0,3.34.14,26,26,0,0,0,4.78-.57L49.1,33l-.19,0-.18-.06s.09,0,.19,0h.18a2.94,2.94,0,0,1,.82.18s0,0,0,0l.26-.06a4.42,4.42,0,0,0-1.06-.42l-.31-.07a1.27,1.27,0,0,1-.31-.07,1.36,1.36,0,0,1,.31,0l.31,0a4.41,4.41,0,0,1,1.31.4.1.1,0,0,1,0,.08l.29-.07a5.23,5.23,0,0,0-1.6-.67l-.44-.1a2.93,2.93,0,0,1-.44-.08,1.79,1.79,0,0,1,.43,0c.22,0,.43,0,.43,0a5.64,5.64,0,0,1,1.81.62.23.23,0,0,1,.08.11l.3-.08a6.83,6.83,0,0,0-2.13-.91s-.28-.07-.56-.11-.57-.07-.57-.09a2.91,2.91,0,0,1,.55,0c.28,0,.55.07.55.07a6.78,6.78,0,0,1,2.3.84.21.21,0,0,1,.11.13l.29-.09h0a8,8,0,0,0-2.61-1.13s-.34-.08-.69-.14-.7-.08-.7-.1a3.79,3.79,0,0,1,.68,0c.33,0,.67.09.67.09A8.31,8.31,0,0,1,52,32.37a.32.32,0,0,1,.13.13l.16-.06-.1,0a7.5,7.5,0,0,0-1.4-.74,10.47,10.47,0,0,0-1.53-.49s-.37-.09-.76-.15-.77-.09-.77-.1a.55.55,0,0,1,.23,0l.52,0c.37,0,.74.1.74.1a10,10,0,0,1,1.6.44,7.41,7.41,0,0,1,1.51.71c.1.08.15.14.16.2l.21-.09a.53.53,0,0,1-.19-.09A7.07,7.07,0,0,0,51,31.4a12.54,12.54,0,0,0-1.68-.52s-.41-.1-.84-.17l-.58-.07-.27,0a1.11,1.11,0,0,1,.26,0l.56,0c.41,0,.82.12.82.12a12,12,0,0,1,1.76.47,7,7,0,0,1,1.66.77c.15.1.2.19.18.25l.25-.13a.39.39,0,0,1-.24-.11,7.28,7.28,0,0,0-1.7-.84,17,17,0,0,0-1.84-.56s-.45-.1-.92-.17l-.63-.09a1.54,1.54,0,0,1-.29,0h.28l.61,0c.45.05.89.13.89.13a14.3,14.3,0,0,1,1.92.51,7.26,7.26,0,0,1,1.82.82c.15.12.21.21.2.27a1.33,1.33,0,0,0,.19-.14.71.71,0,0,1-.21-.11,7.06,7.06,0,0,0-1.85-.9,19,19,0,0,0-2-.59s-.49-.12-1-.19L47.67,30,47.35,30a2.4,2.4,0,0,1,.3,0,5.73,5.73,0,0,1,.67.05,9.12,9.12,0,0,1,1,.14,16.28,16.28,0,0,1,2.08.54,7.45,7.45,0,0,1,2,.88.6.6,0,0,1,.18.18.27.27,0,0,0,0-.12.41.41,0,0,0-.14-.22,4.58,4.58,0,0,0-1.19-.54c-.4-.14-.79-.27-1.17-.38a19.9,19.9,0,0,0-3.64-.75c-.43-.06-.77-.09-1-.11a1.58,1.58,0,0,1-.36,0,3.42,3.42,0,0,1,.36,0c.23,0,.57,0,1,.06a19.35,19.35,0,0,1,3.69.67c.38.11.77.24,1.18.38l.62.22a1.94,1.94,0,0,1,.63.34.53.53,0,0,1,.22.36.51.51,0,0,1-.17.4,2.23,2.23,0,0,1-.65.41A12.9,12.9,0,0,1,51.5,33a26.27,26.27,0,0,1-6.71,1,25,25,0,0,1-3.38-.14,29.22,29.22,0,0,1-3.11-.52,21.68,21.68,0,0,0-2.81-.44,4.88,4.88,0,0,0-1.26.15l-.11,0Zm4.65-2.72a3.77,3.77,0,0,1,.82-.23,18.4,18.4,0,0,1,2-.32,18.64,18.64,0,0,1,2-.12,2.74,2.74,0,0,1,.85.05c0,.06-1.29.1-2.87.27S38.79,30.43,38.77,30.37Zm4.53.08s-.72.06-1.59.15-1.58.21-1.58.16a5.64,5.64,0,0,1,1.56-.31A5.54,5.54,0,0,1,43.3,30.45Zm-1.2.7a4,4,0,0,1-1.06,0,3.41,3.41,0,0,1,1-.19,3.56,3.56,0,0,1,1.06,0A3.7,3.7,0,0,1,42.1,31.15Zm-.08.33s.26-.11.59-.14a1.25,1.25,0,0,1,.61,0,1.37,1.37,0,0,1-.59.14C42.29,31.53,42,31.52,42,31.48Zm.53.33s.15-.08.33-.09.34,0,.34.07-.15.08-.33.09S42.56,31.85,42.55,31.81ZM37.24,63.62a1,1,0,0,1-.21-.11l-.24-.15c-.1-.06-.19-.15-.31-.23a6.57,6.57,0,0,1-1.61-1.87,9.5,9.5,0,0,1-.68-1.57,10,10,0,0,1-.42-1.92,15.8,15.8,0,0,1,.1-4.48,29.48,29.48,0,0,1,1.06-4.35c.41-1.31.83-2.48,1.16-3.46s.61-1.78.79-2.33c.09-.27.16-.49.21-.63s.08-.22.08-.22a1,1,0,0,1,0,.23c0,.15-.1.37-.17.65-.16.55-.4,1.36-.73,2.35s-.72,2.16-1.12,3.47a30.75,30.75,0,0,0-1,4.32A16.65,16.65,0,0,0,34,57.75a11.67,11.67,0,0,0,.4,1.89A8.39,8.39,0,0,0,35,61.18a6.58,6.58,0,0,0,1.53,1.88,2.09,2.09,0,0,0,.3.25l.22.16A.86.86,0,0,1,37.24,63.62Zm-.33-17.27A28.38,28.38,0,0,1,36,49.51a23.32,23.32,0,0,1,.72-3.21,27.6,27.6,0,0,1,.91-3.16A24,24,0,0,1,36.91,46.35Zm.79-.56a3.66,3.66,0,0,1,.14-1.16,3.24,3.24,0,0,1,.34-1.12A3.66,3.66,0,0,1,38,44.67,3.15,3.15,0,0,1,37.7,45.79Zm7.06-5.4a6.34,6.34,0,0,1-1,0,22.52,22.52,0,0,0-2.38.2,23.21,23.21,0,0,0-2.34.44,6,6,0,0,1-1,.21,4.2,4.2,0,0,1,.93-.35,15.68,15.68,0,0,1,2.36-.51,15.52,15.52,0,0,1,2.4-.13A4,4,0,0,1,44.76,40.39Zm3.78,3a12.08,12.08,0,0,1-2.19.21,3.21,3.21,0,0,1-.91-.08c0-.06,1.39,0,3.07-.33s3-.85,3-.79a3.12,3.12,0,0,1-.82.39A11.63,11.63,0,0,1,48.54,43.34Zm4.74,3c.4,1.26.89,2.64,1.33,4.11a22.92,22.92,0,0,1,.91,4.24,13.08,13.08,0,0,1-.08,3.53,9.06,9.06,0,0,1-.68,2.29,6.12,6.12,0,0,1-.29.58.79.79,0,0,1-.12.19.79.79,0,0,1,.08-.21c.07-.13.15-.33.26-.59a10.18,10.18,0,0,0,.61-2.28,13.85,13.85,0,0,0,0-3.49,24.28,24.28,0,0,0-.91-4.2C54,49,53.5,47.65,53.1,46.38A33.7,33.7,0,0,1,52.21,43a16,16,0,0,1-.29-2.37c0-.28,0-.5,0-.65a.89.89,0,0,1,0-.22s0,.31.07.87a21.59,21.59,0,0,0,.35,2.34C52.56,43.91,52.88,45.06,53.28,46.32ZM51.11,64.83a2.39,2.39,0,0,1-.47.19,5.35,5.35,0,0,1-.56.18c-.23.07-.48.15-.76.21s-.6.15-.94.21-.7.13-1.08.19a21,21,0,0,1-2.51.21,24.69,24.69,0,0,1-2.51-.11c-.39,0-.75-.09-1.09-.15s-.66-.11-.94-.17-.54-.13-.77-.19a5.36,5.36,0,0,1-.57-.16,1.82,1.82,0,0,1-.48-.17,2.6,2.6,0,0,1,.5.1l.58.12c.22,0,.48.11.77.15s.59.11.93.15.7.09,1.09.13a21.85,21.85,0,0,0,2.49.09c.88,0,1.72-.09,2.48-.18l1.08-.17.93-.19c.29,0,.54-.12.77-.18l.57-.15A3.25,3.25,0,0,1,51.11,64.83Zm-.22.61s-.08.06-.25.14l-.73.28a13.36,13.36,0,0,1-5.07.71c-.33,0-.6,0-.78-.08a1,1,0,0,1-.28,0s.41,0,1.06,0a16.54,16.54,0,0,0,2.55-.15,17,17,0,0,0,2.49-.55C50.5,65.57,50.88,65.42,50.89,65.44Zm-5.72.81a4.38,4.38,0,0,1-.92,0,7.11,7.11,0,0,1,.91,0c.57,0,1.35-.09,2.2-.21s1.62-.29,2.17-.42a6.82,6.82,0,0,1,.9-.21,4,4,0,0,1-.87.31,15.24,15.24,0,0,1-2.17.47A13.86,13.86,0,0,1,45.17,66.25Zm-5.84-.49c.56.17,1,.25,1,.29a2.29,2.29,0,0,1-1.09-.15,2.42,2.42,0,0,1-1-.49A10.5,10.5,0,0,1,39.33,65.76Zm-.1-.15c-.33-.1-.57-.24-.55-.28s.28,0,.59.14.57.19.56.23S39.55,65.72,39.23,65.61ZM52.49,45.35c.4,1.46.84,2.6.78,2.63a3.17,3.17,0,0,1-.36-.73,16.43,16.43,0,0,1-1-3.75,2.69,2.69,0,0,1-.06-.8C51.89,42.69,52.09,43.9,52.49,45.35Zm1.77,14a7.74,7.74,0,0,1-.35,1.12,11.55,11.55,0,0,1-.62,1.29,11.72,11.72,0,0,1-.81,1.19,9.1,9.1,0,0,1-.78.88,3.7,3.7,0,0,1-.84.68s.29-.3.73-.78c.23-.25.48-.55.74-.89a12.71,12.71,0,0,0,.78-1.18,11.23,11.23,0,0,0,.62-1.26c.17-.4.3-.77.4-1.09.19-.63.27-1,.3-1A4,4,0,0,1,54.26,59.32Zm-.06-6.73c-.35-1.66-.84-3-.78-3a3.89,3.89,0,0,1,.37.83,15.14,15.14,0,0,1,.61,2.11,14.49,14.49,0,0,1,.3,2.18,3.64,3.64,0,0,1,0,.91C54.64,55.64,54.56,54.26,54.2,52.59ZM35.37,50.13s-.21.59-.48,1.57c-.06.25-.13.51-.19.81s-.11.6-.17.93a16.31,16.31,0,0,0-.15,2.17,17.87,17.87,0,0,0,.17,2.17c.06.33.11.65.18.93s.13.56.19.81c.28,1,.53,1.56.49,1.57a1.91,1.91,0,0,1-.2-.39c-.06-.13-.13-.3-.2-.49s-.15-.4-.22-.65-.16-.51-.23-.81-.13-.61-.19-.94a14.78,14.78,0,0,1-.19-2.2,15,15,0,0,1,.17-2.2c.06-.33.11-.65.19-.94s.14-.56.21-.81.16-.46.22-.65.14-.36.2-.49S35.35,50.12,35.37,50.13Zm.22,1.66a5,5,0,0,1-.26,1.12,2.27,2.27,0,0,1,.06-1.16,2.48,2.48,0,0,1,.41-1.09A6.11,6.11,0,0,1,35.59,51.79Zm.71,9.74a8.59,8.59,0,0,1-.92-2A8.33,8.33,0,0,1,35,57.4a2.83,2.83,0,0,1,.06-.91,14.82,14.82,0,0,0,.51,3,15.61,15.61,0,0,0,1.29,2.75A2.83,2.83,0,0,1,36.3,61.53Zm-.95-7.83a2.42,2.42,0,0,1,0,.87,3.15,3.15,0,0,1-.15.87,1.54,1.54,0,0,1,0-.89A1.59,1.59,0,0,1,35.35,53.7Zm2.82,10.21a2.55,2.55,0,0,1-.86-1.13s.41.48,1,1,1.14.79,1.12.84A2.57,2.57,0,0,1,38.17,63.91Zm.84-.66c.05,0,.38.5.94,1s1.12.74,1.1.8a3,3,0,0,1-2-1.79Zm2.09,1.22c-.26-.28-.44-.54-.4-.58s.29.16.55.44.45.54.4.58S41.37,64.75,41.1,64.47Zm9,.06s.6-.73,1.27-1.67,1.13-1.76,1.18-1.73a6.06,6.06,0,0,1-1,1.85A5.89,5.89,0,0,1,50.11,64.53Zm-.87.09a10.28,10.28,0,0,1,.92-1.21,9.58,9.58,0,0,1,.94-1.19,4.11,4.11,0,0,1-.78,1.31A4,4,0,0,1,49.24,64.62Zm-.48,0s.06-.26.23-.5.36-.43.4-.39-.06.26-.23.5S48.81,64.68,48.76,64.64Zm2.87-19.25c.25,1.11.55,2,.49,2a6.66,6.66,0,0,1-.69-2,6.7,6.7,0,0,1-.24-2.06C51.25,43.37,51.38,44.29,51.63,45.39ZM51,45.18a3.39,3.39,0,0,1-.15-1.29,5.28,5.28,0,0,1,.35,1.25,6.21,6.21,0,0,1,.25,1.26A3.25,3.25,0,0,1,51,45.18ZM50.36,45a2.16,2.16,0,0,1-.09-1,2.56,2.56,0,0,1,.29.92,2.52,2.52,0,0,1,.09,1A2.17,2.17,0,0,1,50.36,45Zm-11-1.43A4.51,4.51,0,0,1,37.7,43c0-.06.75.19,1.68.37s1.7.22,1.7.28A4.12,4.12,0,0,1,39.34,43.59Zm.68.84a3.32,3.32,0,0,1-.1,1.31A3.72,3.72,0,0,1,39.55,47a4.78,4.78,0,0,1,.17-1.29A5.75,5.75,0,0,1,40,44.43Zm.66.24c.06,0,0,.28,0,.6s-.16.57-.22.56,0-.28,0-.6S40.63,44.66,40.68,44.67Zm.74.65c-.05,0-.13-.2-.11-.46s.13-.44.18-.43,0,.22,0,.45S41.48,45.31,41.42,45.32Zm11.95,5.49a8.06,8.06,0,0,1,.4,2.45c-.06,0-.22-1.09-.6-2.4s-.82-2.32-.77-2.35A7.88,7.88,0,0,1,53.37,50.81ZM52.73,60c-.06,0,.31-1,.62-2.17s.45-2.2.51-2.19a7.09,7.09,0,0,1-.31,2.24A7.35,7.35,0,0,1,52.73,60Zm-.2-.83a4.65,4.65,0,0,1-.76,1.51,15.88,15.88,0,0,1,.56-1.58c.31-.87.48-1.6.54-1.59A4.82,4.82,0,0,1,52.53,59.17Zm-9.47,6A3.08,3.08,0,0,1,42.3,65c0-.06,1.17.09,2.61,0s2.59-.29,2.6-.23a2.25,2.25,0,0,1-.74.22,12.88,12.88,0,0,1-1.85.21A10.31,10.31,0,0,1,43.06,65.16Zm2.12-.65a9.71,9.71,0,0,1,1.52-.08,4.11,4.11,0,0,1-1.5.28,4.06,4.06,0,0,1-1.53-.11A10.7,10.7,0,0,1,45.18,64.51Zm-8.6-4.16a4.31,4.31,0,0,1-.46-1.91c.06,0,.21.85.64,1.82s1,1.66.93,1.7A4.23,4.23,0,0,1,36.58,60.35Zm1-13.74a3.75,3.75,0,0,1-.17,1.25A4,4,0,0,1,37,49.07a4.27,4.27,0,0,1,.18-1.25A4.22,4.22,0,0,1,37.54,46.61Zm1.34-2c-.07.37-.2.64-.25.63s0-.31,0-.66.13-.64.19-.64A1,1,0,0,1,38.88,44.59Zm10.28.53a1.77,1.77,0,0,1,0-1,3.66,3.66,0,0,1,.17,1,3.54,3.54,0,0,1,.1,1A1.89,1.89,0,0,1,49.16,45.12Zm-.71-.26c0,.34,0,.62,0,.63s-.14-.26-.18-.6,0-.62,0-.63S48.4,44.52,48.45,44.86Zm-1.05.06a1.26,1.26,0,0,1,.08-.73c.06,0,.1.33.12.71a1.73,1.73,0,0,1,0,.72C47.53,45.64,47.43,45.32,47.4,44.92Zm-4.51-.76c.06,0,.14.26.14.6s-.09.6-.14.59-.07-.27-.07-.59S42.84,44.17,42.89,44.16ZM38.51,39a1.92,1.92,0,0,1-.09,1,5.3,5.3,0,0,1-.12-1,5.73,5.73,0,0,1-.11-1A1.9,1.9,0,0,1,38.51,39Zm12.38-1.65a5.89,5.89,0,0,1-.13,1,4.73,4.73,0,0,1-.14,1,1.93,1.93,0,0,1-.06-1A2,2,0,0,1,50.89,37.31Zm-.68.14s0,.27,0,.57-.07.55-.13.55S50,38.32,50,38,50.16,37.43,50.21,37.45Zm-9.78,1a1.85,1.85,0,0,1-.1,1.07,5.76,5.76,0,0,1-.1-1.05,4.76,4.76,0,0,1-.1-1.06A2,2,0,0,1,40.43,38.42Zm.43.29c0,.24,0,.44,0,.44s-.13-.18-.15-.41,0-.43.05-.44S40.83,38.48,40.86,38.71Zm11.21,13c-.21-1.18-.62-2.09-.56-2.11a5.26,5.26,0,0,1,.76,2.08,5.15,5.15,0,0,1,0,2.21C52.22,53.9,52.29,52.91,52.07,51.72Zm-.84,6.57a8.94,8.94,0,0,1,.31-1.49,10.82,10.82,0,0,1,.31-1.5,3.92,3.92,0,0,1-.11,1.54A4,4,0,0,1,51.23,58.29Zm-.36-8.7A13.24,13.24,0,0,1,50.35,48a5.05,5.05,0,0,1,.71,1.56,5,5,0,0,1,.34,1.68A13.2,13.2,0,0,1,50.87,49.59Zm.28-1.3a1.73,1.73,0,0,1,.15.88c-.06,0-.19-.36-.34-.82s-.29-.83-.23-.85A1.75,1.75,0,0,1,51.15,48.29ZM49.71,48A3.94,3.94,0,0,1,50,49.4a6.81,6.81,0,0,1-.49-1.35,7.44,7.44,0,0,1-.44-1.37A4,4,0,0,1,49.71,48Zm.16,13.61a3.47,3.47,0,0,1,.39-.9c.23-.49.4-.89.46-.87a2,2,0,0,1-.28,1A2,2,0,0,1,49.87,61.6Zm-11.44-13a2.84,2.84,0,0,1,.11-1.1,3.12,3.12,0,0,1,.3-1.05,2.9,2.9,0,0,1-.1,1.09A3.1,3.1,0,0,1,38.43,48.56Zm8.14-3.38c-.06,0-.13-.2-.11-.47s.12-.46.17-.45,0,.22,0,.47S46.62,45.18,46.57,45.18ZM45.82,45c-.06,0-.12-.1-.1-.24s.11-.23.16-.2.06.12,0,.23S45.87,45,45.82,45Zm16.82-6.56A6.9,6.9,0,0,1,62,40.39c-.1.22-.19.39-.25.5s-.1.17-.11.16.1-.25.29-.69a8.06,8.06,0,0,0,.6-1.93,3.39,3.39,0,0,0-.07-1.37,3,3,0,0,0-.78-1.35,3.59,3.59,0,0,0-1.46-.91,4,4,0,0,0-1.86-.11,4.79,4.79,0,0,0-1.74.68,5.89,5.89,0,0,0-1.31,1.16,7.87,7.87,0,0,0-1.4,2.63,14.37,14.37,0,0,0-.47,2,6,6,0,0,1-.13.74s0-.07,0-.19,0-.32,0-.56a12.05,12.05,0,0,1,.41-2,7.81,7.81,0,0,1,1.4-2.71,5.81,5.81,0,0,1,1.34-1.21,5.16,5.16,0,0,1,1.82-.71,4.13,4.13,0,0,1,2,.12,3.76,3.76,0,0,1,1.54,1A3.36,3.36,0,0,1,62.6,37,3.48,3.48,0,0,1,62.64,38.45Zm-1,3.94a2.63,2.63,0,0,1-.25.45L60.7,44a34.09,34.09,0,0,0-2.22,4,16.31,16.31,0,0,0-.87,2.36,16.53,16.53,0,0,0-.42,2,3.43,3.43,0,0,1-.44,1.34,1.62,1.62,0,0,1-.25.29c-.07.05-.11.08-.12.07a2.36,2.36,0,0,0,.3-.41,3.38,3.38,0,0,0,.37-1.31,14.8,14.8,0,0,1,.38-2,15.89,15.89,0,0,1,.86-2.4,29.3,29.3,0,0,1,2.29-4c.32-.49.6-.88.79-1.15A1.92,1.92,0,0,1,61.69,42.39Zm-4.55,5.54c-.63,1.18-1,2.22-1.06,2.2a7.7,7.7,0,0,1,.88-2.3,7.59,7.59,0,0,1,1.41-2C58.42,45.86,57.77,46.74,57.14,47.93Zm.17-.11A5.81,5.81,0,0,1,58.53,46s-.52.82-1,1.88-.8,2-.85,2A5.46,5.46,0,0,1,57.31,47.82Zm.48,0a4.19,4.19,0,0,1,.91-1.29A12.59,12.59,0,0,1,58,47.9a12.58,12.58,0,0,1-.75,1.37A4.16,4.16,0,0,1,57.79,47.8ZM53.38,35.51A4.81,4.81,0,0,1,55,34.17a5,5,0,0,1,2-.7c0,.06-.9.31-1.92.88S53.42,35.55,53.38,35.51ZM56.7,33.8a2.05,2.05,0,0,1,.68-.13,18,18,0,0,0-2.08,1,15.46,15.46,0,0,0-1.8,1.42s.12-.24.41-.55A6.59,6.59,0,0,1,56.7,33.8ZM57,34a1.73,1.73,0,0,1,.73-.14A12,12,0,0,0,55.46,35a12.39,12.39,0,0,0-1.84,1.69A2.05,2.05,0,0,1,54,36a6.79,6.79,0,0,1,1.33-1.23A6.3,6.3,0,0,1,57,34Zm.26.22a2.39,2.39,0,0,1,.79-.16,6.86,6.86,0,0,1-.74.3,7.52,7.52,0,0,0-1.67.92,8.13,8.13,0,0,0-.8.69c-.23.23-.42.45-.58.64-.3.38-.47.64-.49.63a1.9,1.9,0,0,1,.38-.72,5.12,5.12,0,0,1,.56-.68,6.46,6.46,0,0,1,.81-.72A6,6,0,0,1,57.23,34.24Zm.26.22a2.48,2.48,0,0,1,.85-.18,5.29,5.29,0,0,1-.8.32,6.19,6.19,0,0,0-.84.4,7.2,7.2,0,0,0-1.77,1.4,6.52,6.52,0,0,0-.59.73c-.3.43-.45.73-.49.71a2.5,2.5,0,0,1,.37-.79,5.47,5.47,0,0,1,.56-.77,6.63,6.63,0,0,1,.85-.81,6.54,6.54,0,0,1,1-.64A6,6,0,0,1,57.49,34.46ZM63,38.9a3.89,3.89,0,0,1-.54,1.38c-.2.32-.38.49-.4.47a3.81,3.81,0,0,1,.28-.54,4.92,4.92,0,0,0,.46-1.35,5,5,0,0,0,.05-1.42,3.48,3.48,0,0,1-.07-.6s.13.2.21.57A3.87,3.87,0,0,1,63,38.9Zm.46-.11a3.18,3.18,0,0,1-.34,1c-.13.23-.24.35-.27.34a14,14,0,0,0,.41-1.35c.14-.77,0-1.4.1-1.41s.08.15.12.41A3.28,3.28,0,0,1,63.49,38.79Zm.41.12a2.11,2.11,0,0,1-.46,1.17c-.06,0,.16-.54.25-1.2s0-1.21.09-1.22A2,2,0,0,1,63.9,38.91Zm-2.29-1.63a2.84,2.84,0,0,0-.31-.9,2.7,2.7,0,0,0-.61-.75c-.18-.16-.32-.25-.3-.28s.17,0,.39.17a2.18,2.18,0,0,1,.7.76,2.21,2.21,0,0,1,.27,1c0,.27,0,.42-.07.42S61.64,37.53,61.61,37.28Zm.21.29a2.62,2.62,0,0,0-.07-.89,2.71,2.71,0,0,0-.38-.8c-.13-.19-.23-.3-.21-.32s.15,0,.32.23a1.86,1.86,0,0,1,.47.84,2.07,2.07,0,0,1,0,1c-.06.24-.14.37-.16.36S61.8,37.79,61.82,37.57Zm-25,13.08s-.13.92-.25,2-.16,2.05-.21,2.05a6.29,6.29,0,0,1,0-2.07A6.74,6.74,0,0,1,36.81,50.65ZM38.17,61.3a2.26,2.26,0,0,1-.4-1.09,6.14,6.14,0,0,1,.57,1,6.81,6.81,0,0,1,.57,1A2.24,2.24,0,0,1,38.17,61.3Zm21.28-27c-.45-.05-.74,0-.74-.05a1.56,1.56,0,0,1,.75-.09,3.59,3.59,0,0,1,3,1.88,1.71,1.71,0,0,1,.25.71s-.13-.26-.38-.64a3.89,3.89,0,0,0-2.9-1.81Zm2.91,1.3c-.18-.28-.38-.47-.35-.52s.31.1.52.41.22.64.16.64S62.54,35.85,62.36,35.57Z"/><path class="cls-1" d="M90.72,62.19C89.24,66.76,83.15,69,80.38,72.82S77.3,83.14,73.46,85.94s-10,1.06-14.61,2.54S50.42,95,45.53,95s-8.91-5.1-13.31-6.53c-4.57-1.48-10.81.23-14.61-2.54s-4.13-9.28-6.93-13.12S1.82,66.76.34,62.19c-1.43-4.41,2.12-9.8,2.12-14.69S-1.09,37.23.34,32.82C1.82,28.25,7.91,26,10.68,22.19s3.09-10.32,6.93-13.12S27.65,8,32.22,6.53C36.62,5.1,40.65,0,45.53,0s8.91,5.1,13.32,6.53,10.8-.23,14.61,2.54,4.13,9.28,6.92,13.12,8.86,6.06,10.34,10.63c1.43,4.41-2.12,9.8-2.12,14.68S92.15,57.78,90.72,62.19ZM82.8,47.5A37.27,37.27,0,1,0,45.53,84.77,37.27,37.27,0,0,0,82.8,47.5Z"/><path class="cls-2" d="M32.61,87.28a22.5,22.5,0,0,0-6.11-.76c-1,0-2.06,0-3.09-.1A15.1,15.1,0,0,1,20.35,86a6.39,6.39,0,0,1-2.71-1.51,9.38,9.38,0,0,1-1.77-2.56C15,80,14.36,78,13.61,76.13a22,22,0,0,0-1.29-2.78,11.39,11.39,0,0,0-1.83-2.43A43.45,43.45,0,0,0,5.76,67a25.38,25.38,0,0,1-2.37-2,8.58,8.58,0,0,1-1.84-2.56,6.42,6.42,0,0,1-.49-3.12,15.89,15.89,0,0,1,.54-3.08c.52-2,1.19-4,1.57-6a13.89,13.89,0,0,0,.28-3,15.44,15.44,0,0,0-.4-3c-.43-2-1.12-3.93-1.62-6A14.06,14.06,0,0,1,1,35.18a6.59,6.59,0,0,1,.17-1.6,6.13,6.13,0,0,1,.58-1.51,10,10,0,0,1,2-2.47,30,30,0,0,1,2.39-2,35,35,0,0,0,4.64-4,16,16,0,0,0,2.9-5.29,48.53,48.53,0,0,1,2.29-5.78,8.18,8.18,0,0,1,2-2.51A7.14,7.14,0,0,1,20.8,8.7,35.38,35.38,0,0,1,27,8.2a18.7,18.7,0,0,0,6-.92,26.07,26.07,0,0,0,5.26-3.07C39.1,3.63,40,3,40.86,2.52a11.82,11.82,0,0,1,2.88-1.28,6.5,6.5,0,0,1,3.19-.09,10.72,10.72,0,0,1,2.93,1.18c1.82,1,3.45,2.31,5.17,3.4a17.82,17.82,0,0,0,2.68,1.45,12.07,12.07,0,0,0,2.91.8,59.16,59.16,0,0,0,6.14.4,20.15,20.15,0,0,1,3.09.34A7.55,7.55,0,0,1,72.78,9.9a7.59,7.59,0,0,1,2,2.39,20,20,0,0,1,1.28,2.83c.72,1.94,1.32,3.91,2.21,5.75a12.31,12.31,0,0,0,1.62,2.58,17.8,17.8,0,0,0,2.18,2.16c1.56,1.33,3.27,2.5,4.8,3.89a10.83,10.83,0,0,1,2,2.35,6,6,0,0,1,.64,1.41,5.63,5.63,0,0,1,.25,1.53,12.23,12.23,0,0,1-.37,3.07c-.23,1-.53,2-.82,3,.28-1,.56-2,.78-3a11.72,11.72,0,0,0,.33-3.06,5.82,5.82,0,0,0-.26-1.5,6.22,6.22,0,0,0-.65-1.38,10.85,10.85,0,0,0-2-2.3c-1.53-1.36-3.25-2.5-4.84-3.83a18.2,18.2,0,0,1-2.24-2.15A12.47,12.47,0,0,1,78,21c-.93-1.86-1.53-3.85-2.27-5.76a18.27,18.27,0,0,0-1.27-2.77,7,7,0,0,0-2-2.26,7.28,7.28,0,0,0-2.77-1.09,20.33,20.33,0,0,0-3-.31,58.51,58.51,0,0,1-6.18-.36,12.42,12.42,0,0,1-3-.81,18.69,18.69,0,0,1-2.76-1.47C53,5.08,51.36,3.8,49.59,2.81a10.26,10.26,0,0,0-2.78-1.12,6,6,0,0,0-2.92.09A11.4,11.4,0,0,0,41.15,3c-.88.51-1.72,1.09-2.57,1.68A26.4,26.4,0,0,1,33.2,7.83a19.19,19.19,0,0,1-6.17,1,32.91,32.91,0,0,0-6.08.5,6.28,6.28,0,0,0-2.65,1.23,7.5,7.5,0,0,0-1.81,2.32,50.07,50.07,0,0,0-2.26,5.7A25.8,25.8,0,0,1,13,21.42,12.17,12.17,0,0,1,11.2,24a34,34,0,0,1-4.73,4,29.75,29.75,0,0,0-2.35,2,9,9,0,0,0-1.88,2.31,5.75,5.75,0,0,0-.54,1.37,6.46,6.46,0,0,0-.15,1.46,13.32,13.32,0,0,0,.43,3c.48,2,1.17,3.93,1.61,6A16,16,0,0,1,4,47.24a14.8,14.8,0,0,1-.3,3.12c-.41,2-1.1,4-1.62,6a16.36,16.36,0,0,0-.55,3A5.93,5.93,0,0,0,2,62.25a8.24,8.24,0,0,0,1.73,2.43,24.45,24.45,0,0,0,2.31,2,44.89,44.89,0,0,1,4.75,4,12.17,12.17,0,0,1,1.86,2.52A20,20,0,0,1,13.89,76c.74,1.93,1.31,3.91,2.19,5.76a9,9,0,0,0,1.7,2.52,6.21,6.21,0,0,0,2.61,1.5,14.75,14.75,0,0,0,3,.5c1,.08,2,.11,3.08.15A22.13,22.13,0,0,1,32.61,87.28Z"/><path class="cls-1" d="M45.53,83.67A36.17,36.17,0,1,1,81.7,47.5,36.21,36.21,0,0,1,45.53,83.67Zm0-71.07a34.91,34.91,0,1,0,34.9,34.9A34.94,34.94,0,0,0,45.53,12.6Z"/><path class="cls-1" d="M45.53,73.48a26,26,0,1,1,26-26A26,26,0,0,1,45.53,73.48Zm0-50.69A24.72,24.72,0,1,0,70.24,47.5,24.74,24.74,0,0,0,45.53,22.79Z"/><circle class="cls-1" cx="75.75" cy="44.13" r="2.11"/><circle class="cls-1" cx="15.38" cy="44.13" r="2.11"/><path class="cls-2" d="M25.74,80.51a38.59,38.59,0,0,0,55-18.25,39.14,39.14,0,0,0,2.95-12.7,38.47,38.47,0,0,0-1.44-13,39,39,0,0,0-5.69-11.81,38.37,38.37,0,0,1,6,11.72,38.47,38.47,0,0,1-1.27,26A38.44,38.44,0,0,1,63.72,81.74a38.23,38.23,0,0,1-6.11,2.59,37.57,37.57,0,0,1-6.46,1.48A38.69,38.69,0,0,1,38,85.39,37.91,37.91,0,0,1,25.74,80.51Z"/></g></g></svg>