<svg xmlns="http://www.w3.org/2000/svg" xmlns:xlink="http://www.w3.org/1999/xlink" viewBox="0 0 128 128"><defs><style>.cls-1{fill:url(#linear-gradient);}.cls-2{fill:#4da67f;}.cls-3{fill:url(#linear-gradient-2);}.cls-4{fill:#f69163;}.cls-5{fill:url(#linear-gradient-3);}.cls-6{fill:#7ece67;}.cls-7{fill:#e7f4ce;}.cls-8{fill:url(#linear-gradient-4);}.cls-9{fill:url(#linear-gradient-5);}.cls-10{fill:#f6b756;}.cls-11{fill:url(#linear-gradient-6);}.cls-12{fill:#cba07a;}.cls-13{fill:url(#linear-gradient-7);}.cls-14{fill:#47566a;}</style><linearGradient id="linear-gradient" x1="73.96" y1="25.19" x2="73.96" y2="7.34" gradientUnits="userSpaceOnUse"><stop offset="0" stop-color="#6ab891"/><stop offset="1" stop-color="#85cba9"/></linearGradient><linearGradient id="linear-gradient-2" x1="81.85" y1="111.71" x2="81.85" y2="20.41" gradientUnits="userSpaceOnUse"><stop offset="0" stop-color="#f8aa88"/><stop offset="1" stop-color="#fac2ab"/></linearGradient><linearGradient id="linear-gradient-3" x1="97.52" y1="126.68" x2="97.52" y2="74.66" gradientUnits="userSpaceOnUse"><stop offset="0" stop-color="#8cdd79"/><stop offset="1" stop-color="#d4e6b6"/></linearGradient><linearGradient id="linear-gradient-4" x1="107.5" y1="76.67" x2="107.5" y2="62.66" xlink:href="#linear-gradient"/><linearGradient id="linear-gradient-5" x1="46.21" y1="126.69" x2="46.21" y2="35.73" gradientUnits="userSpaceOnUse"><stop offset="0" stop-color="#fbcc88"/><stop offset="1" stop-color="#ffe5c3"/></linearGradient><linearGradient id="linear-gradient-6" x1="12.85" y1="35.73" x2="12.85" y2="23.46" gradientUnits="userSpaceOnUse"><stop offset="0" stop-color="#d1a788"/><stop offset="1" stop-color="#f2d3b8"/></linearGradient><linearGradient id="linear-gradient-7" x1="88.84" y1="119.68" x2="88.84" y2="109.78" xlink:href="#linear-gradient-6"/></defs><title>Fruit</title><g id="Fruit"><path class="cls-1" d="M95.45,13.46C86,26.7,64.35,27.63,52.47,21.7c2-3,10.1-12.41,22-14C86.86,6,93.32,10.76,95.19,12.44"/><path class="cls-2" d="M95.45,13.46C86,26.7,64.35,27.63,52.47,21.7a24.86,24.86,0,0,1,1.71-2.22c11.7,4.85,30.79,3.7,40.23-7.69C95.37,12.57,95.15,12.29,95.45,13.46Z"/><path class="cls-2" d="M61.47,19.7a1,1,0,0,1-.17-2l34-6a1,1,0,0,1,.35,2C59.23,20.11,61.61,19.7,61.47,19.7Z"/><path class="cls-3" d="M124.59,78.16c-.84,2.59-.63,1.89-13.06,33.5l-72,0L36.2,79.89c4.95-3.38,9.71-7.12,12.87-12.18C63.56,44.5,59.91,33.06,79.52,23.83c5.1-1.87,5.83-2.08,5.93-2.18,18.11-4.91,37.2,5.16,40.61,23C128.49,57.34,127.73,68.51,124.59,78.16Z"/><path class="cls-4" d="M94.31,111.68l-54.78,0L36.2,79.89c.82-.56,1.65-1.13,2.46-1.73C46,89.44,56.51,97,66.19,101.52c12.33,5.75,19,5,20.92,5.28C91,107.36,93.3,109.28,94.31,111.68Z"/><path class="cls-4" d="M124.59,78.16c-.84,2.59-.63,1.89-13.06,33.5l-41.78,0a43.77,43.77,0,0,1-3.56-10.17C63.34,88.18,69,71.69,83.51,71.68c7,0,11.41,1.88,13.81,2,14.2-2.15,13-2,13.27-2A16,16,0,0,1,124.59,78.16Z"/><path class="cls-5" d="M126.52,95.65c0,13-12,31-21,31-6,0-5-1-8-1s-2,1-8,1c-9,0-21-18-21-31s6-21,15-21c7,0,11,2,14,2,14.49-2.19,12.95-2,14-2C120.51,74.66,126.51,82.65,126.52,95.65Z"/><path class="cls-6" d="M105.54,126.67c-6,0-5-1-8-1s-2,1-8,1c-8.46,0-22.28-18-20.91-33.86,1.18,12.75,12.39,28.86,20.91,28.86,6,0,5-1,8-1s2,1,8,1c8.52,0,19.71-16.14,20.87-28.89C127.79,108.58,114.11,126.66,105.54,126.67Z"/><path class="cls-7" d="M119.52,95.66c0-6.77-2.11-14-8-14a1,1,0,0,1,0-2c7.37,0,10,8.26,10,16A1,1,0,0,1,119.52,95.66Z"/><path class="cls-8" d="M97.51,76.67h6a14,14,0,0,0,14-14h-6A14,14,0,0,0,97.51,76.67Z"/><path class="cls-2" d="M117.5,62.66a14,14,0,0,1-14,14h-6a14.14,14.14,0,0,1,.32-3h5.68a14,14,0,0,0,13.67-11Z"/><path class="cls-9" d="M65.29,126.69c-29,0-48.8-12.55-60-39.95-9-22-4-51,5-51h5c8,0,8.92,23.13,19,41,13,23,39,33,51,33S94.21,126.68,65.29,126.69Z"/><path class="cls-10" d="M65.29,126.69c-29,0-48.8-12.55-60-39.95A69.2,69.2,0,0,1,.53,59.19,67.93,67.93,0,0,0,5.26,82.74c11.23,27.4,31,40,60,40,16.24,0,24.33-5.34,26.18-10C93.85,117.52,86.58,126.68,65.29,126.69Z"/><path class="cls-10" d="M47.86,115.61C8.84,97.28,9.24,63.05,9.25,62.71a1,1,0,0,1,2,0c0,.33-.34,33.29,37.46,51,16.48,7.74,34.18,4,34.36,3.91a1,1,0,0,1,.43,2C74.16,121.75,59.5,121.08,47.86,115.61Z"/><path class="cls-11" d="M17.23,28.73c-.64,1.58-1.94,5.32-1.64,7H10.23c0-2.23-.38-7.38-2-9-2-2,4-4,6-3S19.22,23.73,17.23,28.73Z"/><path class="cls-4" d="M96.13,25.12c-5.51,0-3.58-3-2.22-2.34.06,0,1.85.79,5.32-.08a1,1,0,0,1,.49,1.94A14.68,14.68,0,0,1,96.13,25.12Z"/><path class="cls-12" d="M15.59,35.73H10.23s0-1.33-.17-3h5.86A8.54,8.54,0,0,0,15.59,35.73Z"/><path class="cls-13" d="M89.43,119.68c-.19,0-5.92-3.92-2.66-9.9h0C92.27,110.52,93.66,115.36,89.43,119.68Z"/><path class="cls-14" d="M83.53,118c-.17,0-17.88,3.83-34.36-3.93C11.39,96.32,11.74,63.36,11.75,63a1,1,0,0,0-1-1,1,1,0,0,0-1,1c0,.35-.43,34.58,38.57,52.94A57.33,57.33,0,0,0,72.59,121,57.11,57.11,0,0,0,84,120a1,1,0,0,0-.43-2Z"/><path class="cls-14" d="M112,80a1,1,0,0,0,0,2c5.9,0,8,7.23,8,14a1,1,0,0,0,2,0C122,88.26,119.37,80,112,80Z"/><path class="cls-14" d="M127.55,44.81A29.87,29.87,0,0,0,113.77,25a34.6,34.6,0,0,0-15.91-5.12,41.47,41.47,0,0,0-.94-6.49.92.92,0,0,0,.06-.52,1,1,0,0,0-.34-.58C93.81,2,87.35,1,85,1a1,1,0,0,0,0,2c1.74,0,6.15.7,8.83,7.16-3.34-2-9.5-4.41-19-3.15C63.51,8.53,55.05,17.12,52.17,21.45a1,1,0,0,0-.14.81,1,1,0,0,0,.52.63,38.79,38.79,0,0,0,16.88,3.57,44.25,44.25,0,0,0,5-.29c-9.16,6-11.61,11.83-15.21,20.45a131.67,131.67,0,0,1-10.5,20.85C45.77,72.19,41.38,75.7,37,78.77c-.47-.74-.92-1.49-1.35-2.26-4.32-7.65-6.91-16.16-9.19-23.68-2.85-9.41-5-16.43-9.33-17.63a19.67,19.67,0,0,1,1.58-5.83c.8-2,.94-3.34.43-4.31a3.47,3.47,0,0,0-2.62-1.55,6.22,6.22,0,0,1-1.3-.4c-1.92-1-6.16.07-7.42,1.82A2.05,2.05,0,0,0,8,27.71c1.11,1.1,1.6,4.8,1.69,7.4A7.82,7.82,0,0,0,5,38.77c-5.89,8.76-7.2,31.41-.17,48.61C16,114.71,35.93,128,65.75,128c7.9,0,13.48-1.25,17.29-2.69A12.05,12.05,0,0,0,90,128a17,17,0,0,0,5.84-.67,7.23,7.23,0,0,1,4.32,0A17,17,0,0,0,106,128c9.46,0,22-18.24,22-32a29.14,29.14,0,0,0-3.11-14C129.24,70.91,130.14,58.4,127.55,44.81ZM95.85,19.75a36.78,36.78,0,0,0-4.57.2,25.65,25.65,0,0,0,4.15-3.86Q95.7,17.77,95.85,19.75ZM54.53,21.61c2.2-2.83,9.54-11.14,20.6-12.62,9.82-1.3,15.75,1.52,18.5,3.41L61.83,18A1,1,0,0,0,62,20a.47.47,0,0,0,.17,0l32.14-5.67A24.94,24.94,0,0,1,85.73,21h0l-.21.08-.12.09a33.23,33.23,0,0,1-5.38,2,.81.81,0,0,0-.39.1l0,0C70.87,25.51,61.18,24.54,54.53,21.61ZM50.42,68.53A134.11,134.11,0,0,0,61.07,47.39c3.78-9.06,6.06-14.52,16-20.53A37.16,37.16,0,0,1,80.48,25h0a34.74,34.74,0,0,0,5.81-2.11h0A34.22,34.22,0,0,1,96,21.75c0,.54,0,1.09,0,1.66a5.57,5.57,0,0,1-1.55-.31,1,1,0,0,0-.89,1.79,7.18,7.18,0,0,0,3.1.56,14.62,14.62,0,0,0,3.59-.48A1,1,0,1,0,99.76,23a14,14,0,0,1-1.77.32c0-.51,0-1,0-1.51a32.64,32.64,0,0,1,14.75,4.82,27.91,27.91,0,0,1,12.88,18.53c2.41,12.64,1.72,24.3-2,34.69A13.87,13.87,0,0,0,114,74.14,15,15,0,0,0,119,63a1,1,0,0,0-1-1h-6a15,15,0,0,0-13,7.55V69a9,9,0,0,0-9-9,1,1,0,0,0,0,2,7,7,0,0,1,7,7v6.92a27.06,27.06,0,0,1-2.93-.59A41.4,41.4,0,0,0,84,74c-9.72,0-16,8.64-16,22a31.08,31.08,0,0,0,1.6,9.24C58.93,101,46.53,93,38.06,80.44,42.66,77.24,47.27,73.57,50.42,68.53ZM104,76H99a13,13,0,0,1,13-12h5A13,13,0,0,1,104,76ZM9.35,26.17a2.29,2.29,0,0,1,1.1-.79,5.82,5.82,0,0,1,3.85-.49,8,8,0,0,0,1.73.57c.58.13,1.18.27,1.31.52s.22.79-.52,2.65A21.71,21.71,0,0,0,15.11,35H11.73c-.08-2.14-.47-6.9-2.28-8.71ZM6.67,86.62C-.13,70,1.05,48.23,6.65,39.88,7.53,38.57,9,37,10.75,37h5c3.79,0,6,7.24,8.77,16.41,2.31,7.62,4.93,16.25,9.36,24.08.63,1.12,1.3,2.19,2,3.25h0C49.28,101.35,73.11,111,85.74,111A7.56,7.56,0,0,0,87,118.63a11.9,11.9,0,0,0,1.36,1.44A17.29,17.29,0,0,1,85.59,122c-3.31,1.85-9.45,4-19.84,4C36.84,126,17.51,113.12,6.67,86.62Zm84.69,28.26a6,6,0,0,1-1.61,3.78,10.15,10.15,0,0,1-1.22-1.28,5.55,5.55,0,0,1-.72-6.15C90,111.72,91.36,113,91.36,114.88ZM106,126a15.27,15.27,0,0,1-5.25-.58,9.21,9.21,0,0,0-5.5,0A15.27,15.27,0,0,1,90,126a9.25,9.25,0,0,1-4.77-1.61l1.34-.69a17.5,17.5,0,0,0,4-3l.07-.07a8.51,8.51,0,0,0,2.74-5.78c0-2.61-1.88-5.24-6-5.77h0a13.12,13.12,0,0,0-1.58-.1A43.83,43.83,0,0,1,72,106.16,30.17,30.17,0,0,1,70,96c0-12.15,5.5-20,14-20a39.53,39.53,0,0,1,9.62,1.28A20,20,0,0,0,98,78h6a14.88,14.88,0,0,0,7.44-2H112c8.5,0,14,7.85,14,20C126,108.62,114.41,126,106,126Z"/></g></svg>