<svg xmlns="http://www.w3.org/2000/svg" xmlns:xlink="http://www.w3.org/1999/xlink" viewBox="0 0 128 128"><defs><style>.cls-1{fill:url(#linear-gradient);}.cls-2{fill:#8a6762;}.cls-3{fill:url(#linear-gradient-2);}.cls-4{fill:#eab39b;}.cls-5{fill:url(#linear-gradient-3);}.cls-6{fill:#d861b0;}.cls-7{fill:url(#linear-gradient-4);}.cls-8{fill:#c7cdd8;}.cls-9{fill:#47566a;}</style><linearGradient id="linear-gradient" x1="64" y1="123" x2="64" y2="34" gradientUnits="userSpaceOnUse"><stop offset="0" stop-color="#9b756d"/><stop offset="1" stop-color="#bc9388"/></linearGradient><linearGradient id="linear-gradient-2" x1="63.99" y1="109" x2="63.99" y2="5" gradientUnits="userSpaceOnUse"><stop offset="0" stop-color="#f2c4b0"/><stop offset="1" stop-color="#ffe3d7"/></linearGradient><linearGradient id="linear-gradient-3" x1="63.99" y1="103.01" x2="63.99" y2="11" gradientUnits="userSpaceOnUse"><stop offset="0" stop-color="#d96bb0"/><stop offset="1" stop-color="#d88bc2"/></linearGradient><linearGradient id="linear-gradient-4" x1="85.99" y1="87" x2="85.99" y2="69" gradientUnits="userSpaceOnUse"><stop offset="0" stop-color="#d4d8e1"/><stop offset="1" stop-color="#f3f4f5"/></linearGradient></defs><title>Protein Meat</title><g id="Protein_Meat" data-name="Protein Meat"><path class="cls-1" d="M127,55c0,28.91,1.49,49.26-23,64-10.36,6.21-49,9-55-20C43.12,70.57,31,75.74,22,73,9,69,1,66,1,49V34"/><path class="cls-2" d="M127,65c0,25.08-2.07,41.39-23,54-10.36,6.21-49,9-55-20C43.11,70.57,31,75.74,22,73,9,69,1,66,1,49V45C1,62,9,65,22,69c9,2.77,21.12-2.4,27,26,6,29,44.64,26.2,55,20C119,106,127,95,127,65Z"/><path class="cls-3" d="M127,55c0,30-8,41-23,50-10.36,6.21-49,9-55-20C43.12,56.57,31,61.74,22,59,9,55,1,52,1,35,1,14,28,5,66,5S127,25,127,55Z"/><path class="cls-4" d="M127,55c0,30-8,41-23,50-10.36,6.21-49,9-55-20C43.11,56.57,31,61.74,22,59,9,55,1,52,1,35c0-.39,0-.78,0-1.16C1.59,49.2,9.47,52.12,22,56c9,2.77,21.12-2.4,27,26,6,29,44.64,26.2,55,20,14.66-8.8,22.64-19.5,23-48C127,54.3,127,54.63,127,55Z"/><path class="cls-5" d="M54.87,83.74c-6.72-32.45-22.9-28-31.12-30.5C11,49.32,7,47.48,7,35,7,13.34,48.25,11,66,11c33.93,0,55,16.85,55,44,0,27.71-6.76,36.84-20.08,44.83C93,104.51,59.75,107.32,54.87,83.74Z"/><path class="cls-6" d="M121,55c0,27.71-6.76,36.84-20.09,44.83-7.9,4.73-41.16,7.51-46-16.06C48.2,51.5,32.37,55.82,23.75,53.24,11,49.32,7,47.48,7,35a14.5,14.5,0,0,1,.16-2.22c.84,9.15,5.28,11,16.6,14.48,8.43,2.52,24.43-1.82,31.12,30.5,4.82,23.33,37.91,20.93,46,16.06,12.68-7.6,19.41-16.23,20-40.89C121,53.59,121,54.28,121,55Z"/><circle class="cls-7" cx="85.99" cy="78" r="9"/><path class="cls-8" d="M86,87a9,9,0,0,1-8.88-10.5,9,9,0,0,0,17.76,0A9,9,0,0,1,86,87Z"/><path class="cls-9" d="M128,55c0-31-24.34-51-62-51C24.31,4,1,14.57,0,33.78A1.43,1.43,0,0,0,0,34V49H0C0,66.37,8.25,69.79,21.71,73.93A35.7,35.7,0,0,0,27.44,75c7.87,1,16,2,20.58,24.17a28.68,28.68,0,0,0,17.29,21.16A48.61,48.61,0,0,0,84.55,124c8.33,0,15.94-1.77,20-4.19C119.38,110.89,128,99.71,128,69h0V55h0ZM66,6c37,0,60,18.77,60,49,0,29.94-7.91,40.36-22.51,49.12-5.81,3.48-23.26,6.59-37.37.4C57.32,100.63,51.89,94,50,84.75,45.11,61.21,35.86,60,27.69,59a31.75,31.75,0,0,1-5.4-1C9,53.91,2,51,2,35,2,9.77,42.1,6,66,6Zm37.49,112.09c-5.81,3.48-23.26,6.59-37.37.4C57.32,114.63,51.89,108,50,98.75,45.11,75.21,35.86,74,27.69,73a31.75,31.75,0,0,1-5.4-1C9,67.91,2,65,2,49V46.91C5.21,54.4,12.14,57,21.71,59.93A35.7,35.7,0,0,0,27.44,61c7.87,1,16,2,20.58,24.17a28.68,28.68,0,0,0,17.29,21.16A48.61,48.61,0,0,0,84.55,110c8.33,0,15.94-1.77,20-4.19,10.41-6.24,17.75-13.6,21.22-28C124.25,101.08,116.54,110.26,103.49,118.09Z"/><path class="cls-9" d="M23.47,54.19A30,30,0,0,0,28.2,55c10.67,1.35,20.66,4.58,25.7,28.9C57.64,102.05,76.53,104,84.48,104s14.26-1.73,17-3.34C115.07,92.48,122,83.16,122,55c0-27.74-21.46-45-56-45C48,10,6,12.43,6,35,6,48.15,10.49,50.2,23.47,54.19ZM66,12c33.31,0,54,16.47,54,43,0,27.24-6.6,36.18-19.6,44-2.46,1.48-8.49,3.06-15.92,3.06S59.3,100.2,55.85,83.54c-5.3-25.62-16-29-27.41-30.49a28.89,28.89,0,0,1-4.38-.77C11.59,48.45,8,46.81,8,35,8,14.24,48.56,12,66,12Z"/><path class="cls-9" d="M86,88A10,10,0,1,0,76,78,10,10,0,0,0,86,88Zm0-18a8,8,0,1,1-8,8A8,8,0,0,1,86,70Z"/></g></svg>